<?xml version="1.0" standalone="no"?><!DOCTYPE svg PUBLIC "-//W3C//DTD SVG 1.1//EN" "http://www.w3.org/Graphics/SVG/1.1/DTD/svg11.dtd"><svg t="1715342725601" class="icon" viewBox="0 0 1024 1024" version="1.1" xmlns="http://www.w3.org/2000/svg" p-id="4288" xmlns:xlink="http://www.w3.org/1999/xlink" width="256" height="256"><path d="M512 512m-512 0a512 512 0 1 0 1024 0 512 512 0 1 0-1024 0Z" fill="#350C24" p-id="4289"></path><path d="M846.1312 295.5264a148.6592 148.6592 0 0 1-148.48-148.48h-123.2128V661.0176a112.768 112.768 0 0 1-112.64 112.64 112.768 112.768 0 0 1-112.64-112.64 112.8704 112.8704 0 0 1 112.64-112.64c10.9568 0 10.24-0.2304 23.04 0.4096l-6.6048-123.0592a232.96 232.96 0 0 0-16.384-0.5632 236.1344 236.1344 0 0 0-235.8528 235.8528 236.1344 236.1344 0 0 0 235.8528 235.8528 236.1344 236.1344 0 0 0 235.8528-235.8528v-286.72a270.0544 270.0544 0 0 0 148.48 44.3392z" fill="#FF2A5D" p-id="4290"></path><path d="M817.0752 272.2048a148.6592 148.6592 0 0 1-148.48-148.48H545.28v513.9968a112.768 112.768 0 0 1-112.64 112.64 112.768 112.768 0 0 1-112.64-112.64 112.8448 112.8448 0 0 1 112.64-112.64c10.9568 0 10.24-0.2304 23.04 0.4096l-6.6048-123.0592a249.5488 249.5488 0 0 0-16.384-0.5632 236.1088 236.1088 0 0 0-235.8528 235.8528 236.1344 236.1344 0 0 0 235.8528 235.8528 236.1344 236.1344 0 0 0 235.8528-235.8528v-286.72a270.0288 270.0288 0 0 0 148.48 44.3392z" fill="#50FFFF" p-id="4291"></path><path d="M817.0752 292.736a148.48 148.48 0 0 1-77.44-42.2912 148.8128 148.8128 0 0 1-69.12-103.3472h-96V661.0688a112.768 112.768 0 0 1-112.64 112.64 112.384 112.384 0 0 1-83.968-37.6576 112.64 112.64 0 0 1-57.728-98.304 112.8448 112.8448 0 0 1 112.64-112.64c10.9568 0 10.24-0.2304 23.04 0.4096l-5.376-100.0192a236.1344 236.1344 0 0 0-224.4096 235.52 235.2128 235.2128 0 0 0 74.7008 171.9808 234.5216 234.5216 0 0 0 132.1216 40.576 236.1344 236.1344 0 0 0 235.8528-235.8528v-286.72a270.0288 270.0288 0 0 0 148.48 44.3392z" fill="#FFFFFF" p-id="4292"></path></svg>